{"asset":{"version":"2.0","generator":"Blockbench 4.7.0 glTF exporter"},"scenes":[{"nodes":[11],"name":"blockbench_export"}],"scene":0,"nodes":[{"name":"body","mesh":0},{"name":"head","mesh":1},{"name":"ear_left","mesh":2},{"name":"snout","mesh":3},{"name":"ear_right","mesh":4},{"rotation":[0.3826834323650898,0,0,0.9238795325112867],"translation":[0.4375,0.6875,0.9375],"name":"tail","mesh":5},{"rotation":[-0.3826834323650898,0,0,0.9238795325112867],"translation":[0.4371875,0.375,1.24875],"name":"tail1","mesh":6},{"name":"foot_front_left","mesh":7},{"name":"foot_back_left","mesh":8},{"name":"foot_front_right","mesh":9},{"name":"foot_back_right","mesh":10},{"children":[0,1,2,3,4,5,6,7,8,9,10]}],"bufferViews":[{"buffer":0,"byteOffset":0,"byteLength":288,"target":34962,"byteStride":12},{"buffer":0,"byteOffset":288,"byteLength":288,"target":34962,"byteStride":12},{"buffer":0,"byteOffset":576,"byteLength":192,"target":34962,"byteStride":8},{"buffer":0,"byteOffset":768,"byteLength":72,"target":34963},{"buffer":0,"byteOffset":840,"byteLength":288,"target":34962,"byteStride":12},{"buffer":0,"byteOffset":1128,"byteLength":288,"target":34962,"byteStride":12},{"buffer":0,"byteOffset":1416,"byteLength":192,"target":34962,"byteStride":8},{"buffer":0,"byteOffset":1608,"byteLength":72,"target":34963},{"buffer":0,"byteOffset":1680,"byteLength":288,"target":34962,"byteStride":12},{"buffer":0,"byteOffset":1968,"byteLength":288,"target":34962,"byteStride":12},{"buffer":0,"byteOffset":2256,"byteLength":192,"target":34962,"byteStride":8},{"buffer":0,"byteOffset":2448,"byteLength":60,"target":34963},{"buffer":0,"byteOffset":2508,"byteLength":288,"target":34962,"byteStride":12},{"buffer":0,"byteOffset":2796,"byteLength":288,"target":34962,"byteStride":12},{"buffer":0,"byteOffset":3084,"byteLength":192,"target":34962,"byteStride":8},{"buffer":0,"byteOffset":3276,"byteLength":60,"target":34963},{"buffer":0,"byteOffset":3336,"byteLength":288,"target":34962,"byteStride":12},{"buffer":0,"byteOffset":3624,"byteLength":288,"target":34962,"byteStride":12},{"buffer":0,"byteOffset":3912,"byteLength":192,"target":34962,"byteStride":8},{"buffer":0,"byteOffset":4104,"byteLength":60,"target":34963},{"buffer":0,"byteOffset":4164,"byteLength":288,"target":34962,"byteStride":12},{"buffer":0,"byteOffset":4452,"byteLength":288,"target":34962,"byteStride":12},{"buffer":0,"byteOffset":4740,"byteLength":192,"target":34962,"byteStride":8},{"buffer":0,"byteOffset":4932,"byteLength":60,"target":34963},{"buffer":0,"byteOffset":4992,"byteLength":288,"target":34962,"byteStride":12},{"buffer":0,"byteOffset":5280,"byteLength":288,"target":34962,"byteStride":12},{"buffer":0,"byteOffset":5568,"byteLength":192,"target":34962,"byteStride":8},{"buffer":0,"byteOffset":5760,"byteLength":72,"target":34963},{"buffer":0,"byteOffset":5832,"byteLength":288,"target":34962,"byteStride":12},{"buffer":0,"byteOffset":6120,"byteLength":288,"target":34962,"byteStride":12},{"buffer":0,"byteOffset":6408,"byteLength":192,"target":34962,"byteStride":8},{"buffer":0,"byteOffset":6600,"byteLength":60,"target":34963},{"buffer":0,"byteOffset":6660,"byteLength":288,"target":34962,"byteStride":12},{"buffer":0,"byteOffset":6948,"byteLength":288,"target":34962,"byteStride":12},{"buffer":0,"byteOffset":7236,"byteLength":192,"target":34962,"byteStride":8},{"buffer":0,"byteOffset":7428,"byteLength":60,"target":34963},{"buffer":0,"byteOffset":7488,"byteLength":288,"target":34962,"byteStride":12},{"buffer":0,"byteOffset":7776,"byteLength":288,"target":34962,"byteStride":12},{"buffer":0,"byteOffset":8064,"byteLength":192,"target":34962,"byteStride":8},{"buffer":0,"byteOffset":8256,"byteLength":60,"target":34963},{"buffer":0,"byteOffset":8316,"byteLength":288,"target":34962,"byteStride":12},{"buffer":0,"byteOffset":8604,"byteLength":288,"target":34962,"byteStride":12},{"buffer":0,"byteOffset":8892,"byteLength":192,"target":34962,"byteStride":8},{"buffer":0,"byteOffset":9084,"byteLength":60,"target":34963}],"buffers":[{"byteLength":9144,"uri":"data:application/octet-stream;base64,"}],"accessors":[{"bufferView":0,"componentType":5126,"count":24,"max":[0.625,0.75,1],"min":[0.3125,0.5,0],"type":"VEC3"},{"bufferView":1,"componentType":5126,"count":24,"max":[1,1,1],"min":[-1,-1,-1],"type":"VEC3"},{"bufferView":2,"componentType":5126,"count":24,"max":[0.625,0.5],"min":[0,0.24999994039535522],"type":"VEC2"},{"bufferView":3,"componentType":5123,"count":36,"max":[23],"min":[0],"type":"SCALAR"},{"bufferView":4,"componentType":5126,"count":24,"max":[0.640625,0.875,0.09375],"min":[0.296875,0.625,-0.25],"type":"VEC3"},{"bufferView":5,"componentType":5126,"count":24,"max":[1,1,1],"min":[-1,-1,-1],"type":"VEC3"},{"bufferView":6,"componentType":5126,"count":24,"max":[0.75,0.25],"min":[0,0],"type":"VEC2"},{"bufferView":7,"componentType":5123,"count":36,"max":[23],"min":[0],"type":"SCALAR"},{"bufferView":8,"componentType":5126,"count":24,"max":[0.375,0.9375,0.09375],"min":[0.3125,0.875,-0.0625],"type":"VEC3"},{"bufferView":9,"componentType":5126,"count":24,"max":[1,1,1],"min":[-1,-1,-1],"type":"VEC3"},{"bufferView":10,"componentType":5126,"count":24,"max":[1,1],"min":[0,0],"type":"VEC2"},{"bufferView":11,"componentType":5123,"count":30,"max":[23],"min":[0],"type":"SCALAR"},{"bufferView":12,"componentType":5126,"count":24,"max":[0.5625,0.75,-0.25],"min":[0.375,0.625,-0.3125],"type":"VEC3"},{"bufferView":13,"componentType":5126,"count":24,"max":[1,1,1],"min":[-1,-1,-1],"type":"VEC3"},{"bufferView":14,"componentType":5126,"count":24,"max":[1,1],"min":[0,0],"type":"VEC2"},{"bufferView":15,"componentType":5123,"count":30,"max":[23],"min":[0],"type":"SCALAR"},{"bufferView":16,"componentType":5126,"count":24,"max":[0.625,0.9375,0.09375],"min":[0.5625,0.875,-0.0625],"type":"VEC3"},{"bufferView":17,"componentType":5126,"count":24,"max":[1,1,1],"min":[-1,-1,-1],"type":"VEC3"},{"bufferView":18,"componentType":5126,"count":24,"max":[1,1],"min":[0,0],"type":"VEC2"},{"bufferView":19,"componentType":5123,"count":30,"max":[23],"min":[0],"type":"SCALAR"},{"bufferView":20,"componentType":5126,"count":24,"max":[0.0625,0.0625,0.4375],"min":[0,0,0],"type":"VEC3"},{"bufferView":21,"componentType":5126,"count":24,"max":[1,1,1],"min":[-1,-1,-1],"type":"VEC3"},{"bufferView":22,"componentType":5126,"count":24,"max":[1,1],"min":[0,0],"type":"VEC2"},{"bufferView":23,"componentType":5123,"count":30,"max":[19],"min":[0],"type":"SCALAR"},{"bufferView":24,"componentType":5126,"count":24,"max":[0.06312499940395355,0.06312499940395355,0.18937499821186066],"min":[0,0,0],"type":"VEC3"},{"bufferView":25,"componentType":5126,"count":24,"max":[1,1,1],"min":[-1,-1,-1],"type":"VEC3"},{"bufferView":26,"componentType":5126,"count":24,"max":[0.875,0.171875],"min":[0.75,0.109375],"type":"VEC2"},{"bufferView":27,"componentType":5123,"count":36,"max":[23],"min":[0],"type":"SCALAR"},{"bufferView":28,"componentType":5126,"count":24,"max":[0.4375,0.5,0.125],"min":[0.3125,0.28125,0.03125],"type":"VEC3"},{"bufferView":29,"componentType":5126,"count":24,"max":[1,1,1],"min":[-1,-1,-1],"type":"VEC3"},{"bufferView":30,"componentType":5126,"count":24,"max":[1,1],"min":[0,0],"type":"VEC2"},{"bufferView":31,"componentType":5123,"count":30,"max":[23],"min":[0],"type":"SCALAR"},{"bufferView":32,"componentType":5126,"count":24,"max":[0.4375,0.5,0.96875],"min":[0.3125,0.28125,0.875],"type":"VEC3"},{"bufferView":33,"componentType":5126,"count":24,"max":[1,1,1],"min":[-1,-1,-1],"type":"VEC3"},{"bufferView":34,"componentType":5126,"count":24,"max":[1,1],"min":[0,0],"type":"VEC2"},{"bufferView":35,"componentType":5123,"count":30,"max":[23],"min":[0],"type":"SCALAR"},{"bufferView":36,"componentType":5126,"count":24,"max":[0.625,0.5,0.125],"min":[0.5,0.28125,0.03125],"type":"VEC3"},{"bufferView":37,"componentType":5126,"count":24,"max":[1,1,1],"min":[-1,-1,-1],"type":"VEC3"},{"bufferView":38,"componentType":5126,"count":24,"max":[1,1],"min":[0,0],"type":"VEC2"},{"bufferView":39,"componentType":5123,"count":30,"max":[23],"min":[0],"type":"SCALAR"},{"bufferView":40,"componentType":5126,"count":24,"max":[0.625,0.5,0.96875],"min":[0.5,0.28125,0.875],"type":"VEC3"},{"bufferView":41,"componentType":5126,"count":24,"max":[1,1,1],"min":[-1,-1,-1],"type":"VEC3"},{"bufferView":42,"componentType":5126,"count":24,"max":[1,1],"min":[0,0],"type":"VEC2"},{"bufferView":43,"componentType":5123,"count":30,"max":[23],"min":[0],"type":"SCALAR"}],"materials":[{"pbrMetallicRoughness":{"metallicFactor":0,"roughnessFactor":1,"baseColorTexture":{"index":0}},"alphaMode":"MASK","alphaCutoff":0.05}],"textures":[{"sampler":0,"source":0,"name":"british_shorthair.png"}],"samplers":[{"magFilter":9728,"minFilter":9728,"wrapS":33071,"wrapT":33071}],"images":[{"mimeType":"image/png","uri":"data:image/png;base64,"}],"meshes":[{"primitives":[{"mode":4,"attributes":{"POSITION":0,"NORMAL":1,"TEXCOORD_0":2},"indices":3,"material":0}]},{"primitives":[{"mode":4,"attributes":{"POSITION":4,"NORMAL":5,"TEXCOORD_0":6},"indices":7,"material":0}]},{"primitives":[{"mode":4,"attributes":{"POSITION":8,"NORMAL":9,"TEXCOORD_0":10},"indices":11,"material":0}]},{"primitives":[{"mode":4,"attributes":{"POSITION":12,"NORMAL":13,"TEXCOORD_0":14},"indices":15,"material":0}]},{"primitives":[{"mode":4,"attributes":{"POSITION":16,"NORMAL":17,"TEXCOORD_0":18},"indices":19,"material":0}]},{"primitives":[{"mode":4,"attributes":{"POSITION":20,"NORMAL":21,"TEXCOORD_0":22},"indices":23,"material":0}]},{"primitives":[{"mode":4,"attributes":{"POSITION":24,"NORMAL":25,"TEXCOORD_0":26},"indices":27,"material":0}]},{"primitives":[{"mode":4,"attributes":{"POSITION":28,"NORMAL":29,"TEXCOORD_0":30},"indices":31,"material":0}]},{"primitives":[{"mode":4,"attributes":{"POSITION":32,"NORMAL":33,"TEXCOORD_0":34},"indices":35,"material":0}]},{"primitives":[{"mode":4,"attributes":{"POSITION":36,"NORMAL":37,"TEXCOORD_0":38},"indices":39,"material":0}]},{"primitives":[{"mode":4,"attributes":{"POSITION":40,"NORMAL":41,"TEXCOORD_0":42},"indices":43,"material":0}]}]}