# Made in Blockbench 4.6.5
mtllib test_hat.mtl

o cube
v 0.5 -0.3125 0.5
v 0.5 -0.3125 -0.5
v 0.5 -0.5 0.5
v 0.5 -0.5 -0.5
v -0.5 -0.3125 -0.5
v -0.5 -0.3125 0.5
v -0.5 -0.5 -0.5
v -0.5 -0.5 0.5
vt 0.015625 0.984375
vt 0.046875 0.984375
vt 0.046875 0.953125
vt 0.015625 0.953125
vt 0.078125 0.984375
vt 0.109375 0.984375
vt 0.109375 0.953125
vt 0.078125 0.953125
vt 0.140625 0.984375
vt 0.171875 0.984375
vt 0.171875 0.953125
vt 0.140625 0.953125
vt 0.203125 0.984375
vt 0.234375 0.984375
vt 0.234375 0.953125
vt 0.203125 0.953125
vt 0.265625 0.984375
vt 0.296875 0.984375
vt 0.296875 0.953125
vt 0.265625 0.953125
vt 0.328125 0.984375
vt 0.359375 0.984375
vt 0.359375 0.953125
vt 0.328125 0.953125
vn 0 0 -1
vn 1 0 0
vn 0 0 1
vn -1 0 0
vn 0 1 0
vn 0 -1 0
usemtl m_e8488136-00e3-e47b-dcad-e196f554260d
f 4/4/1 7/3/1 5/2/1 2/1/1
f 3/8/2 4/7/2 2/6/2 1/5/2
f 8/12/3 3/11/3 1/10/3 6/9/3
f 7/16/4 8/15/4 6/14/4 5/13/4
f 6/20/5 1/19/5 2/18/5 5/17/5
f 7/24/6 4/23/6 3/22/6 8/21/6
o cube
v 0.25 -0.41161165235168157 -0.41161165235168157
v 0.25 -0.05805826175840778 -0.7651650429449552
v 0.25 -0.5 -0.5
v 0.25 -0.1464466094067262 -0.8535533905932737
v -0.25 -0.05805826175840778 -0.7651650429449552
v -0.25 -0.41161165235168157 -0.41161165235168157
v -0.25 -0.1464466094067262 -0.8535533905932737
v -0.25 -0.5 -0.5
vt 0.390625 0.984375
vt 0.421875 0.984375
vt 0.421875 0.953125
vt 0.390625 0.953125
vt 0.453125 0.984375
vt 0.484375 0.984375
vt 0.484375 0.953125
vt 0.453125 0.953125
vt 0.515625 0.984375
vt 0.546875 0.984375
vt 0.546875 0.953125
vt 0.515625 0.953125
vt 0.578125 0.984375
vt 0.609375 0.984375
vt 0.609375 0.953125
vt 0.578125 0.953125
vt 0.640625 0.984375
vt 0.671875 0.984375
vt 0.671875 0.953125
vt 0.640625 0.953125
vt 0.703125 0.984375
vt 0.734375 0.984375
vt 0.734375 0.953125
vt 0.703125 0.953125
vn 0 0.7071067811865476 -0.7071067811865475
vn 1 0 0
vn 0 -0.7071067811865476 0.7071067811865475
vn -1 0 0
vn 0 0.7071067811865475 0.7071067811865476
vn 0 -0.7071067811865475 -0.7071067811865476
usemtl m_a6b50e97-8acc-c58a-c7e9-01c1caffd334
f 12/28/7 15/27/7 13/26/7 10/25/7
f 11/32/8 12/31/8 10/30/8 9/29/8
f 16/36/9 11/35/9 9/34/9 14/33/9
f 15/40/10 16/39/10 14/38/10 13/37/10
f 14/44/11 9/43/11 10/42/11 13/41/11
f 15/48/12 12/47/12 11/46/12 16/45/12
o cube
v -0.12792768114948955 0.39826203835250884 0.4375
v -0.12792768114948955 0.39826203835250884 0.0625
v 0.15908489312432772 -0.29464761103095627 0.4375
v 0.15908489312432772 -0.29464761103095627 0.0625
v -0.5321249766231775 0.23083803669278202 0.0625
v -0.5321249766231775 0.23083803669278202 0.4375
v -0.24511240234936021 -0.462071612690683 0.0625
v -0.24511240234936021 -0.462071612690683 0.4375
vt 0.015625 0.984375
vt 0.046875 0.984375
vt 0.046875 0.953125
vt 0.015625 0.953125
vt 0.078125 0.984375
vt 0.109375 0.984375
vt 0.109375 0.953125
vt 0.078125 0.953125
vt 0.140625 0.984375
vt 0.171875 0.984375
vt 0.171875 0.953125
vt 0.140625 0.953125
vt 0.203125 0.984375
vt 0.234375 0.984375
vt 0.234375 0.953125
vt 0.203125 0.953125
vt 0.265625 0.984375
vt 0.296875 0.984375
vt 0.296875 0.953125
vt 0.265625 0.953125
vt 0.328125 0.984375
vt 0.359375 0.984375
vt 0.359375 0.953125
vt 0.328125 0.953125
vn 0 0 -1
vn 0.9238795325112867 0.3826834323650897 0
vn 0 0 1
vn -0.9238795325112867 -0.3826834323650897 0
vn -0.3826834323650897 0.9238795325112867 0
vn 0.3826834323650897 -0.9238795325112867 0
usemtl m_a6b50e97-8acc-c58a-c7e9-01c1caffd334
f 20/52/13 23/51/13 21/50/13 18/49/13
f 19/56/14 20/55/14 18/54/14 17/53/14
f 24/60/15 19/59/15 17/58/15 22/57/15
f 23/64/16 24/63/16 22/62/16 21/61/16
f 22/68/17 17/67/17 18/66/17 21/65/17
f 23/72/18 20/71/18 19/70/18 24/69/18