# Made in Blockbench 4.7.0
mtllib tophat.mtl

o rim
v 0.21875 0.25 0.21875
v 0.21875 0.25 -0.34375
v 0.21875 0.15625 0.21875
v 0.21875 0.15625 -0.34375
v -0.34375 0.25 -0.34375
v -0.34375 0.25 0.21875
v -0.34375 0.15625 -0.34375
v -0.34375 0.15625 0.21875
vt 0.1875 0.75
vt 0.46875 0.75
vt 0.46875 0.6875
vt 0.1875 0.6875
vt 0.46875 0.75
vt 0.75 0.75
vt 0.75 0.6875
vt 0.46875 0.6875
vt 0.1875 0.6875
vt 0.46875 0.6875
vt 0.46875 0.625
vt 0.1875 0.625
vt 0.46875 0.6875
vt 0.75 0.6875
vt 0.75 0.625
vt 0.46875 0.625
vt 0 0.5625
vt 0.3125 0.5625
vt 0.3125 0.25
vt 0 0.25
vt 0.3125 0.5625
vt 0.625 0.5625
vt 0.625 0.25
vt 0.3125 0.25
vn 0 0 -1
vn 1 0 0
vn 0 0 1
vn -1 0 0
vn 0 1 0
vn 0 -1 0
usemtl m_f964378b-06fe-43f0-9f60-38aaedee1678
f 4/4/1 7/3/1 5/2/1 2/1/1
f 3/8/2 4/7/2 2/6/2 1/5/2
f 8/12/3 3/11/3 1/10/3 6/9/3
f 7/16/4 8/15/4 6/14/4 5/13/4
f 6/20/5 1/19/5 2/18/5 5/17/5
f 7/24/6 4/23/6 3/22/6 8/21/6
o ribbon
v 0.16249999999999998 0.33125000000000004 0.16249999999999998
v 0.16249999999999998 0.33125000000000004 -0.2875
v 0.16249999999999998 0.28125 0.16249999999999998
v 0.16249999999999998 0.28125 -0.2875
v -0.2875 0.33125000000000004 -0.2875
v -0.2875 0.33125000000000004 0.16249999999999998
v -0.2875 0.28125 -0.2875
v -0.2875 0.28125 0.16249999999999998
vt 0 1
vt 0.5 1
vt 0.5 0.9375
vt 0 0.9375
vt 0 0.8125
vt 0.5 0.8125
vt 0.5 0.75
vt 0 0.75
vt 0 0.9375
vt 0.5 0.9375
vt 0.5 0.875
vt 0 0.875
vt 0 0.875
vt 0.5 0.875
vt 0.5 0.8125
vt 0 0.8125
vt 0.5 0.5000000625000001
vt 1 0.5000000625000001
vt 1 0
vt 0.5 0
vt 0 1
vt 0.5 1
vt 0.5 0.49999993750000005
vt 0 0.49999993750000005
vn 0 0 -1
vn 1 0 0
vn 0 0 1
vn -1 0 0
vn 0 1 0
vn 0 -1 0
usemtl m_f964378b-06fe-43f0-9f60-38aaedee1678
f 12/28/7 15/27/7 13/26/7 10/25/7
f 11/32/8 12/31/8 10/30/8 9/29/8
f 16/36/9 11/35/9 9/34/9 14/33/9
f 15/40/10 16/39/10 14/38/10 13/37/10
f 14/44/11 9/43/11 10/42/11 13/41/11
f 15/48/12 12/47/12 11/46/12 16/45/12
o Tophat_top
v 0.13749937499999998 0.76875 0.13749999999999996
v 0.13749937499999998 0.76875 -0.2625
v 0.13749937499999998 0.21875 0.13749999999999996
v 0.13749937499999998 0.21875 -0.2625
v -0.2625 0.76875 -0.2625
v -0.2625 0.76875 0.13749999999999996
v -0.2625 0.21875 -0.2625
v -0.2625 0.21875 0.13749999999999996
vt 0 1
vt 0.1875 1
vt 0.1875 0.75
vt 0 0.75
vt 0.1875 1
vt 0.375 1
vt 0.375 0.75
vt 0.1875 0.75
vt 0.375 1
vt 0.5625 1
vt 0.5625 0.75
vt 0.375 0.75
vt 0.5625 1
vt 0.75 1
vt 0.75 0.75
vt 0.5625 0.75
vt 0 0.75
vt 0.1875 0.75
vt 0.1875 0.5625
vt 0 0.5625
vn 0 0 -1
vn 1 0 0
vn 0 0 1
vn -1 0 0
vn 0 1 0
usemtl m_f964378b-06fe-43f0-9f60-38aaedee1678
f 20/52/13 23/51/13 21/50/13 18/49/13
f 19/56/14 20/55/14 18/54/14 17/53/14
f 24/60/15 19/59/15 17/58/15 22/57/15
f 23/64/16 24/63/16 22/62/16 21/61/16
f 22/68/17 17/67/17 18/66/17 21/65/17
o Monocle1
v 0.00473749999999995 -0.026487499999999997 -0.27654375
v 0.00473749999999995 -0.026487499999999997 -0.31254375
v 0.00473749999999995 -0.062487499999999974 -0.27654375
v 0.00473749999999995 -0.062487499999999974 -0.31254375
v -0.031262500000000026 -0.026487499999999997 -0.31254375
v -0.031262500000000026 -0.026487499999999997 -0.27654375
v -0.031262500000000026 -0.062487499999999974 -0.31254375
v -0.031262500000000026 -0.062487499999999974 -0.27654375
vt 0.125625 0.874375
vt 0.249375 0.874375
vt 0.249375 0.750625
vt 0.125625 0.750625
vt 0.125625 0.874375
vt 0.249375 0.874375
vt 0.249375 0.750625
vt 0.125625 0.750625
vt 0.125625 0.874375
vt 0.249375 0.874375
vt 0.249375 0.750625
vt 0.125625 0.750625
vt 0.125625 0.874375
vt 0.249375 0.874375
vt 0.249375 0.750625
vt 0.125625 0.750625
vt 0.125625 0.874375
vt 0.249375 0.874375
vt 0.249375 0.750625
vt 0.125625 0.750625
vn 0 0 -1
vn 1 0 0
vn 0 0 1
vn -1 0 0
vn 0 -1 0
usemtl m_3f597d18-63fc-019e-ac1c-613a27c4aaa6
f 28/72/18 31/71/18 29/70/18 26/69/18
f 27/76/19 28/75/19 26/74/19 25/73/19
f 32/80/20 27/79/20 25/78/20 30/77/20
f 31/84/21 32/83/21 30/82/21 29/81/21
f 31/88/22 28/87/22 27/86/22 32/85/22
o Monocle2
v 0.0046437499999999465 0.04541874999999995 -0.2765625
v 0.0046437499999999465 0.04541874999999995 -0.31256249999999997
v 0.0046437499999999465 -0.02658125 -0.2765625
v 0.0046437499999999465 -0.02658125 -0.31256249999999997
v -0.031356249999999974 0.04541874999999995 -0.31256249999999997
v -0.031356249999999974 0.04541874999999995 -0.2765625
v -0.031356249999999974 -0.02658125 -0.31256249999999997
v -0.031356249999999974 -0.02658125 -0.2765625
vt 0.656875 0.655625
vt 0.843125 0.655625
vt 0.843125 0.469375
vt 0.656875 0.469375
vt 0.656875 0.655625
vt 0.843125 0.655625
vt 0.843125 0.469375
vt 0.656875 0.469375
vt 0.656875 0.655625
vt 0.843125 0.655625
vt 0.843125 0.469375
vt 0.656875 0.469375
vt 0.656875 0.655625
vt 0.843125 0.655625
vt 0.843125 0.469375
vt 0.656875 0.469375
vt 0.656875 0.655625
vt 0.843125 0.655625
vt 0.843125 0.469375
vt 0.656875 0.469375
vn 0 0 -1
vn 1 0 0
vn 0 0 1
vn -1 0 0
vn 0 1 0
usemtl m_3f597d18-63fc-019e-ac1c-613a27c4aaa6
f 36/92/23 39/91/23 37/90/23 34/89/23
f 35/96/24 36/95/24 34/94/24 33/93/24
f 40/100/25 35/99/25 33/98/25 38/97/25
f 39/104/26 40/103/26 38/102/26 37/101/26
f 38/108/27 33/107/27 34/106/27 37/105/27
o Monocle3
v 0.11266874999999998 -0.0625063125 -0.2765125
v 0.11266874999999998 -0.0625063125 -0.31251249999999997
v 0.11266874999999998 -0.09850625000000002 -0.2765125
v 0.11266874999999998 -0.09850625000000002 -0.31251249999999997
v 0.004668687500000046 -0.0625063125 -0.31251249999999997
v 0.004668687500000046 -0.0625063125 -0.2765125
v 0.004668687500000046 -0.09850625000000002 -0.31251249999999997
v 0.004668687500000046 -0.09850625000000002 -0.2765125
vt 0.188125 0.655625
vt 0.311875 0.655625
vt 0.311875 0.531875
vt 0.188125 0.531875
vt 0.188125 0.655625
vt 0.311875 0.655625
vt 0.311875 0.531875
vt 0.188125 0.531875
vt 0.188125 0.655625
vt 0.311875 0.655625
vt 0.311875 0.531875
vt 0.188125 0.531875
vt 0.188125 0.655625
vt 0.311875 0.655625
vt 0.311875 0.531875
vt 0.188125 0.531875
vt 0.188125 0.655625
vt 0.311875 0.655625
vt 0.311875 0.531875
vt 0.188125 0.531875
vt 0.188125 0.655625
vt 0.311875 0.655625
vt 0.311875 0.531875
vt 0.188125 0.531875
vn 0 0 -1
vn 1 0 0
vn 0 0 1
vn -1 0 0
vn 0 1 0
vn 0 -1 0
usemtl m_3f597d18-63fc-019e-ac1c-613a27c4aaa6
f 44/112/28 47/111/28 45/110/28 42/109/28
f 43/116/29 44/115/29 42/114/29 41/113/29
f 48/120/30 43/119/30 41/118/30 46/117/30
f 47/124/31 48/123/31 46/122/31 45/121/31
f 46/128/32 41/127/32 42/126/32 45/125/32
f 47/132/33 44/131/33 43/130/33 48/129/33
o Monocle4
v 0.07665 0.08156275000000002 -0.27649999999999997
v 0.07665 0.08156275000000002 -0.3125
v 0.07665 0.04556249999999995 -0.27649999999999997
v 0.07665 0.04556249999999995 -0.3125
v 0.004650000000000043 0.08156275000000002 -0.3125
v 0.004650000000000043 0.08156275000000002 -0.27649999999999997
v 0.004650000000000043 0.04556249999999995 -0.3125
v 0.004650000000000043 0.04556249999999995 -0.27649999999999997
vt 0.188125 0.655625
vt 0.311875 0.655625
vt 0.311875 0.531875
vt 0.188125 0.531875
vt 0.188125 0.655625
vt 0.311875 0.655625
vt 0.311875 0.531875
vt 0.188125 0.531875
vt 0.125625 0.874375
vt 0.249375 0.874375
vt 0.249375 0.750625
vt 0.125625 0.750625
vt 0.188125 0.655625
vt 0.311875 0.655625
vt 0.311875 0.531875
vt 0.188125 0.531875
vt 0.188125 0.655625
vt 0.311875 0.655625
vt 0.311875 0.531875
vt 0.188125 0.531875
vn 0 0 -1
vn 0 0 1
vn -1 0 0
vn 0 1 0
vn 0 -1 0
usemtl m_3f597d18-63fc-019e-ac1c-613a27c4aaa6
f 52/136/34 55/135/34 53/134/34 50/133/34
f 56/140/35 51/139/35 49/138/35 54/137/35
f 55/144/36 56/143/36 54/142/36 53/141/36
f 54/148/37 49/147/37 50/146/37 53/145/37
f 55/152/38 52/151/38 51/150/38 56/149/38
o Monocle5
v 0.11263749999999995 0.08151237499999997 -0.2765125625
v 0.11263749999999995 0.08151237499999997 -0.31251249999999997
v 0.11263749999999995 0.045512499999999956 -0.2765125625
v 0.11263749999999995 0.045512499999999956 -0.31251249999999997
v 0.07663750000000003 0.08151237499999997 -0.31251249999999997
v 0.07663750000000003 0.08151237499999997 -0.2765125625
v 0.07663750000000003 0.045512499999999956 -0.31251249999999997
v 0.07663750000000003 0.045512499999999956 -0.2765125625
vt 0.656875 0.655625
vt 0.843125 0.655625
vt 0.843125 0.469375
vt 0.656875 0.469375
vt 0.656875 0.655625
vt 0.843125 0.655625
vt 0.843125 0.469375
vt 0.656875 0.469375
vt 0.656875 0.655625
vt 0.843125 0.655625
vt 0.843125 0.469375
vt 0.656875 0.469375
vt 0.656875 0.655625
vt 0.843125 0.655625
vt 0.843125 0.469375
vt 0.656875 0.469375
vt 0.656875 0.655625
vt 0.843125 0.655625
vt 0.843125 0.469375
vt 0.656875 0.469375
vn 0 0 -1
vn 1 0 0
vn 0 0 1
vn 0 1 0
vn 0 -1 0
usemtl m_3f597d18-63fc-019e-ac1c-613a27c4aaa6
f 60/156/39 63/155/39 61/154/39 58/153/39
f 59/160/40 60/159/40 58/158/40 57/157/40
f 64/164/41 59/163/41 57/162/41 62/161/41
f 62/168/42 57/167/42 58/166/42 61/165/42
f 63/172/43 60/171/43 59/170/43 64/169/43
o Monocle6
v 0.14868125 -0.026600000000000013 -0.2764625
v 0.14868125 -0.026600000000000013 -0.3124625
v 0.14868125 -0.06259999999999999 -0.2764625
v 0.14868125 -0.06259999999999999 -0.3124625
v 0.1126811875 -0.026600000000000013 -0.3124625
v 0.1126811875 -0.026600000000000013 -0.2764625
v 0.1126811875 -0.06259999999999999 -0.3124625
v 0.1126811875 -0.06259999999999999 -0.2764625
vt 0.188125 0.655625
vt 0.311875 0.655625
vt 0.311875 0.531875
vt 0.188125 0.531875
vt 0.188125 0.655625
vt 0.311875 0.655625
vt 0.311875 0.531875
vt 0.188125 0.531875
vt 0.188125 0.655625
vt 0.311875 0.655625
vt 0.311875 0.531875
vt 0.188125 0.531875
vt 0.188125 0.655625
vt 0.311875 0.655625
vt 0.311875 0.531875
vt 0.188125 0.531875
vt 0.188125 0.655625
vt 0.311875 0.655625
vt 0.311875 0.531875
vt 0.188125 0.531875
vn 0 0 -1
vn 1 0 0
vn 0 0 1
vn -1 0 0
vn 0 -1 0
usemtl m_3f597d18-63fc-019e-ac1c-613a27c4aaa6
f 68/176/44 71/175/44 69/174/44 66/173/44
f 67/180/45 68/179/45 66/178/45 65/177/45
f 72/184/46 67/183/46 65/182/46 70/181/46
f 71/188/47 72/187/47 70/186/47 69/185/47
f 71/192/48 68/191/48 67/190/48 72/189/48
o Monocle7
v 0.14859999999999995 0.009506187499999985 -0.27649999999999997
v 0.14859999999999995 0.009506187499999985 -0.3125
v 0.14859999999999995 -0.026493749999999983 -0.27649999999999997
v 0.14859999999999995 -0.026493749999999983 -0.3125
v 0.11260000000000003 0.009506187499999985 -0.3125
v 0.11260000000000003 0.009506187499999985 -0.27649999999999997
v 0.11260000000000003 -0.026493749999999983 -0.3125
v 0.11260000000000003 -0.026493749999999983 -0.27649999999999997
vt 0.656875 0.655625
vt 0.843125 0.655625
vt 0.843125 0.469375
vt 0.656875 0.469375
vt 0.656875 0.655625
vt 0.843125 0.655625
vt 0.843125 0.469375
vt 0.656875 0.469375
vt 0.656875 0.655625
vt 0.843125 0.655625
vt 0.843125 0.469375
vt 0.656875 0.469375
vt 0.656875 0.655625
vt 0.843125 0.655625
vt 0.843125 0.469375
vt 0.656875 0.469375
vn 0 0 -1
vn 1 0 0
vn 0 0 1
vn -1 0 0
usemtl m_3f597d18-63fc-019e-ac1c-613a27c4aaa6
f 76/196/49 79/195/49 77/194/49 74/193/49
f 75/200/50 76/199/50 74/198/50 73/197/50
f 80/204/51 75/203/51 73/202/51 78/201/51
f 79/208/52 80/207/52 78/206/52 77/205/52
o Monocle8
v 0.14870625000000004 0.045487500000000014 -0.27643125
v 0.14870625000000004 0.045487500000000014 -0.31243125
v 0.14870625000000004 0.009487499999999982 -0.27643125
v 0.14870625000000004 0.009487499999999982 -0.31243125
v 0.11270625000000001 0.045487500000000014 -0.31243125
v 0.11270625000000001 0.045487500000000014 -0.27643125
v 0.11270625000000001 0.009487499999999982 -0.31243125
v 0.11270625000000001 0.009487499999999982 -0.27643125
vt 0.188125 0.655625
vt 0.311875 0.655625
vt 0.311875 0.531875
vt 0.188125 0.531875
vt 0.188125 0.655625
vt 0.311875 0.655625
vt 0.311875 0.531875
vt 0.188125 0.531875
vt 0.188125 0.655625
vt 0.311875 0.655625
vt 0.311875 0.531875
vt 0.188125 0.531875
vt 0.188125 0.655625
vt 0.311875 0.655625
vt 0.311875 0.531875
vt 0.188125 0.531875
vt 0.188125 0.655625
vt 0.311875 0.655625
vt 0.311875 0.531875
vt 0.188125 0.531875
vn 0 0 -1
vn 1 0 0
vn 0 0 1
vn -1 0 0
vn 0 1 0
usemtl m_3f597d18-63fc-019e-ac1c-613a27c4aaa6
f 84/212/53 87/211/53 85/210/53 82/209/53
f 83/216/54 84/215/54 82/214/54 81/213/54
f 88/220/55 83/219/55 81/218/55 86/217/55
f 87/224/56 88/223/56 86/222/56 85/221/56
f 86/228/57 81/227/57 82/226/57 85/225/57