<?xml version="1.0" encoding="iso-8859-1"?>
<!-- Uploaded to: SVG Repo, www.svgrepo.com, Generator: SVG Repo Mixer Tools -->
<!DOCTYPE svg PUBLIC "-//W3C//DTD SVG 1.1//EN" "http://www.w3.org/Graphics/SVG/1.1/DTD/svg11.dtd">
<svg height="800px" width="800px" version="1.1" id="Capa_1" xmlns="http://www.w3.org/2000/svg" xmlns:xlink="http://www.w3.org/1999/xlink" 
	 viewBox="0 0 483.62 483.62" xml:space="preserve">
<g>
	<path style="fill:#999999;" d="M347.045,248.043v-46.364l-47.493-7.556c-3.185-13.104-8.353-25.432-15.18-36.641l28.242-38.929
		l5.216-32.784h-38L240.9,114.013c-11.208-6.827-23.536-11.994-36.64-15.179l-7.556-47.495h-46.364l-7.556,47.497
		c-13.103,3.185-25.429,8.353-36.636,15.18l-0.932-28.245h-38l-32.784,32.784l28.246,38.933
		c-6.826,11.207-11.993,23.533-15.177,36.635L0,201.679v46.364l47.501,7.557c3.185,13.102,8.351,25.427,15.177,36.634
		l-28.246,38.935l32.784,32.784h38l0.934-28.246c11.207,6.827,23.533,11.993,36.635,15.179l7.557,47.499h46.364l7.556-47.497
		c13.103-3.185,25.43-8.351,36.638-15.178l38.931,28.244h38l-5.216-32.784l-28.243-38.93c6.828-11.208,11.995-23.536,15.181-36.639
		L347.045,248.043z M173.526,252.49c-15.26,0-27.64-12.37-27.64-27.63s12.38-27.63,27.64-27.63s27.63,12.37,27.63,27.63
		S188.786,252.49,173.526,252.49z"/>
	<path style="fill:#CCCCCC;" d="M385.045,248.043v-46.364l-47.493-7.556c-3.185-13.104-8.353-25.432-15.18-36.641l28.242-38.929
		L317.829,85.77L278.9,114.013c-11.208-6.827-23.536-11.994-36.64-15.179l-7.556-47.495h-46.364l-7.556,47.497
		c-13.103,3.185-25.429,8.353-36.636,15.18L105.216,85.77l-32.784,32.784l28.246,38.933c-6.826,11.207-11.993,23.533-15.177,36.635
		L38,201.679v46.364l47.501,7.557c3.185,13.102,8.351,25.427,15.177,36.634l-28.246,38.935l32.784,32.784l38.934-28.246
		c11.207,6.827,23.533,11.993,36.635,15.179l7.557,47.499h46.364l7.556-47.497c13.103-3.185,25.43-8.351,36.638-15.178
		l38.931,28.244l32.784-32.784l-28.243-38.93c6.828-11.208,11.995-23.536,15.181-36.639L385.045,248.043z M211.526,252.49
		c-15.26,0-27.64-12.37-27.64-27.63s12.38-27.63,27.64-27.63s27.63,12.37,27.63,27.63S226.786,252.49,211.526,252.49z"/>
	<path style="fill:#999999;" d="M211.526,136.6c-3.27,0-6.49,0.18-9.67,0.53c-44.2,4.81-78.59,42.26-78.59,87.73
		c0,45.48,34.39,82.92,78.59,87.73c3.18,0.35,6.4,0.53,9.67,0.53c48.74,0,88.26-39.51,88.26-88.26
		C299.786,176.12,260.266,136.6,211.526,136.6z M183.886,224.86c0-11.86,7.48-21.98,17.98-25.89c3.01-1.13,6.26-1.74,9.66-1.74
		c15.26,0,27.63,12.37,27.63,27.63s-12.37,27.63-27.63,27.63c-3.4,0-6.65-0.61-9.66-1.74
		C191.366,246.84,183.886,236.72,183.886,224.86z"/>
	<path style="fill:#B3B3B3;" d="M201.856,137.13c-44.2,4.81-78.59,42.26-78.59,87.73c0,45.48,34.39,82.92,78.59,87.73
		c44.2-4.81,78.6-42.25,78.6-87.73C280.456,179.39,246.056,141.94,201.856,137.13z M192.196,252.49
		c-15.26,0-27.64-12.37-27.64-27.63s12.38-27.63,27.64-27.63c3.4,0,6.66,0.61,9.67,1.74c10.49,3.92,17.96,14.03,17.96,25.89
		s-7.47,21.97-17.96,25.89C198.856,251.88,195.596,252.49,192.196,252.49z"/>
	<path style="fill:#999999;" d="M202.192,178.3c-25.72,0-46.56,20.85-46.56,46.56c0,25.72,20.84,46.56,46.56,46.56
		c25.71,0,46.56-20.84,46.56-46.56C248.752,199.15,227.902,178.3,202.192,178.3z M202.192,252.49c-15.26,0-27.64-12.37-27.64-27.63
		s12.38-27.63,27.64-27.63s27.63,12.37,27.63,27.63S217.452,252.49,202.192,252.49z"/>
	<path style="fill:#CCCCCC;" d="M211.526,178.3c-25.72,0-46.56,20.85-46.56,46.56c0,25.72,20.84,46.56,46.56,46.56
		c25.71,0,46.56-20.84,46.56-46.56C258.086,199.15,237.236,178.3,211.526,178.3z M211.526,252.49c-15.26,0-27.64-12.37-27.64-27.63
		s12.38-27.63,27.64-27.63s27.63,12.37,27.63,27.63S226.786,252.49,211.526,252.49z"/>
	<path style="fill:#999999;" d="M211.526,197.23c-7.36,0-14.05,2.87-19,7.58c5.31,5.02,8.63,12.15,8.63,20.05
		s-3.32,15.03-8.63,20.05c4.95,4.71,11.64,7.58,19,7.58c15.26,0,27.63-12.37,27.63-27.63S226.786,197.23,211.526,197.23z"/>
	<g>
		<path style="fill:#999999;" d="M457.62,286.384l13.913-29.179h-26l-31.86,7.626c-5.421-7.417-11.887-13.829-19.106-19.103
			l4.447-43.949h-26l-17.138,27.923c-8.834-1.375-17.939-1.413-27.017-0.002l8.863-27.922h-26l-29.18,12.087l7.626,31.863
			c-7.416,5.42-13.827,11.886-19.1,19.104l-5.866-7.627h-26l-12.087,29.179l27.926,17.14c-1.374,8.833-1.413,17.937-0.002,27.013
			l-27.925,17.139l12.087,29.179h26l5.865-7.627c5.42,7.415,11.885,13.826,19.102,19.099l-7.627,31.867l29.179,12.086h26
			l-8.86-27.927c8.833,1.375,17.937,1.413,27.013,0.003l17.138,27.924h26l0.174-24.645l-4.62-19.304
			c7.416-5.42,13.828-11.885,19.102-19.104l31.865,7.627h26l-13.913-29.179l-27.924-17.138c1.375-8.834,1.414-17.94,0.003-27.017
			L457.62,286.384z M349.572,334.417c-9.604,3.978-20.62-0.58-24.598-10.184c-3.978-9.604,0.589-20.617,10.193-24.595
			c9.604-3.978,20.614,0.582,24.592,10.186C363.737,319.429,359.177,330.439,349.572,334.417z"/>
		<path style="fill:#B3B3B3;" d="M483.62,286.384l-12.087-29.179l-31.86,7.626c-5.421-7.417-11.887-13.829-19.106-19.103
			l7.626-31.863l-29.18-12.086l-17.138,27.923c-8.834-1.375-17.939-1.413-27.017-0.002l-17.137-27.922l-29.18,12.087l7.626,31.863
			c-7.416,5.42-13.827,11.886-19.1,19.104l-31.866-7.627l-12.087,29.179l27.926,17.14c-1.374,8.833-1.413,17.937-0.002,27.013
			l-27.925,17.139l12.087,29.179l31.865-7.627c5.42,7.415,11.885,13.826,19.102,19.099l-7.627,31.867l29.179,12.086l17.14-27.927
			c8.833,1.375,17.937,1.413,27.013,0.003l17.138,27.924l29.18-12.087l-7.626-31.863c7.416-5.42,13.828-11.885,19.102-19.104
			l31.865,7.627l12.087-29.179l-27.924-17.138c1.375-8.834,1.414-17.94,0.003-27.017L483.62,286.384z M375.572,334.417
			c-9.604,3.978-20.62-0.58-24.598-10.184c-3.978-9.604,0.589-20.617,10.193-24.595c9.604-3.978,20.614,0.582,24.592,10.186
			C389.737,319.429,385.177,330.439,375.572,334.417z"/>
		<path style="fill:#999999;" d="M368.37,256.905c-2.228,0-4.421,0.123-6.587,0.361c-30.11,3.277-53.537,28.788-53.537,59.763
			c0,30.982,23.427,56.486,53.537,59.763c2.166,0.238,4.36,0.361,6.587,0.361c33.202,0,60.124-26.915,60.124-60.124
			C428.494,283.827,401.573,256.905,368.37,256.905z M349.541,317.029c0-8.079,5.096-14.973,12.248-17.637
			c2.05-0.77,4.264-1.185,6.581-1.185c10.395,0,18.822,8.427,18.822,18.822s-8.427,18.822-18.822,18.822
			c-2.316,0-4.53-0.415-6.581-1.185C354.637,332.002,349.541,325.108,349.541,317.029z"/>
		<path style="fill:#CCCCCC;" d="M361.783,257.266c-30.11,3.277-53.537,28.788-53.537,59.763c0,30.982,23.427,56.486,53.537,59.763
			c30.11-3.277,53.543-28.781,53.543-59.763C415.326,286.054,391.892,260.543,361.783,257.266z M355.202,335.851
			c-10.395,0-18.829-8.427-18.829-18.822s8.433-18.822,18.829-18.822c2.316,0,4.537,0.415,6.587,1.185
			c7.146,2.67,12.235,9.558,12.235,17.637s-5.089,14.966-12.235,17.637C359.739,335.435,357.518,335.851,355.202,335.851z"/>
		<path style="fill:#999999;" d="M362.012,285.312c-17.521,0-31.717,14.203-31.717,31.717c0,17.521,14.197,31.717,31.717,31.717
			c17.514,0,31.717-14.197,31.717-31.717C393.73,299.515,379.526,285.312,362.012,285.312z M362.012,335.851
			c-10.395,0-18.829-8.427-18.829-18.822s8.433-18.822,18.829-18.822s18.822,8.427,18.822,18.822S372.407,335.851,362.012,335.851z"
			/>
		<path style="fill:#B3B3B3;" d="M368.37,285.312c-17.521,0-31.717,14.203-31.717,31.717c0,17.521,14.197,31.717,31.717,31.717
			c17.514,0,31.717-14.197,31.717-31.717C400.088,299.515,385.884,285.312,368.37,285.312z M368.37,335.851
			c-10.395,0-18.829-8.427-18.829-18.822s8.433-18.822,18.829-18.822c10.395,0,18.822,8.427,18.822,18.822
			S378.765,335.851,368.37,335.851z"/>
		<path style="fill:#999999;" d="M368.37,298.207c-5.014,0-9.571,1.955-12.943,5.164c3.617,3.42,5.879,8.277,5.879,13.658
			s-2.262,10.239-5.879,13.658c3.372,3.208,7.929,5.163,12.943,5.163c10.395,0,18.822-8.427,18.822-18.822
			C387.192,306.633,378.765,298.207,368.37,298.207z"/>
	</g>
</g>
</svg>