<?xml version="1.0" encoding="iso-8859-1"?>
<!-- Uploaded to: SVG Repo, www.svgrepo.com, Generator: SVG Repo Mixer Tools -->
<svg height="800px" width="800px" version="1.1" id="Layer_1" xmlns="http://www.w3.org/2000/svg" xmlns:xlink="http://www.w3.org/1999/xlink" 
	 viewBox="0 0 511.999 511.999" xml:space="preserve">
<path style="fill:#4EBFED;" d="M389.336,76.609v14.376c0,3.089-0.74,5.908-2.008,8.362c-4.557,8.773-16.02,12.79-25.521,7.164
	c-0.094-0.059-0.188-0.117-0.294-0.176c-31.899-18.85-68.354-28.822-105.444-28.822s-73.545,9.971-105.444,28.822
	c-0.117,0.07-0.235,0.141-0.364,0.211c-9.501,5.637-20.976,1.597-25.521-7.188c-1.28-2.443-2.008-5.262-2.008-8.339V76.609
	c2.478-1.597,4.992-3.148,7.54-4.651c38.781-22.926,82.272-34.377,125.762-34.377s86.981,11.451,125.762,34.377
	C384.344,73.461,386.858,75.012,389.336,76.609z"/>
<path style="fill:#3BA4BC;" d="M389.336,79.768v11.216c0,3.089-0.74,5.908-2.008,8.362c-3.277-2.161-6.612-4.24-10.006-6.248
	c-36.69-21.681-78.631-33.144-121.288-33.144s-84.597,11.463-121.276,33.144c-3.406,2.008-6.741,4.099-10.018,6.26
	c-1.28-2.443-2.008-5.262-2.008-8.339V79.78c1.022-0.622,2.044-1.233,3.065-1.844c39.392-23.29,84.433-35.598,130.237-35.598
	s90.845,12.308,130.249,35.598C387.304,78.535,388.326,79.146,389.336,79.768z"/>
<path style="fill:#FCD577;" d="M26.267,391.324c-3.891,0-7.451-2.598-8.504-6.535l-9.055-33.86
	c-0.987-3.696-1.864-7.298-2.61-10.709C2.054,322.035,0,303.365,0,284.762c0-51.82,15.503-101.85,44.832-144.681
	c21.241-31.044,48.481-56.516,80.96-75.705c39.398-23.291,84.436-35.602,130.243-35.602s90.845,12.311,130.244,35.603
	c32.485,19.194,59.724,44.662,80.96,75.696c39.925,58.322,54.035,131.282,38.713,200.17c-0.747,3.415-1.6,6.919-2.6,10.678
	l-8.994,33.665c-0.935,3.863-4.414,6.737-8.561,6.737c-4.865,0-8.809-3.932-8.809-8.797v-0.023c0-0.768,0.1-1.531,0.298-2.274
	l9.043-33.848c0.93-3.494,1.722-6.744,2.418-9.93c14.275-64.175,1.133-132.114-36.047-186.427
	c-19.77-28.893-45.134-52.605-75.386-70.48c-36.687-21.689-78.625-33.152-121.281-33.152s-84.594,11.463-121.279,33.151
	c-30.245,17.871-55.608,41.587-75.387,70.491c-27.315,39.89-41.751,86.477-41.751,134.729c0,17.319,1.913,34.702,5.686,51.667
	c0.694,3.182,1.508,6.518,2.424,9.951l9.054,33.858c1.257,4.699-1.535,9.528-6.234,10.785
	C27.786,391.226,27.02,391.324,26.267,391.324z"/>
<g>
	<path style="fill:#415E72;" d="M75.971,308.588l-1.164,155.744l0,0c-35.256-6.948-60.585-37.991-60.317-73.925l0.066-8.786
		C14.823,345.685,40.612,315.017,75.971,308.588L75.971,308.588z"/>
	<path style="fill:#415E72;" d="M436.133,308.588L436.133,308.588l1.164,155.744l0,0c35.226-6.942,60.489-38.021,60.091-73.922
		l-0.105-9.369C496.887,345.36,471.241,314.973,436.133,308.588z"/>
</g>
<path style="fill:#4EBFED;" d="M130.437,472.207c-0.043,6.128-5.044,11.061-11.173,11.018l-34.67-0.267
	c-6.128-0.043-11.061-5.044-11.018-11.173l0.055-7.452l1.164-155.744l0.052-7.441c0.043-6.128,5.044-11.061,11.173-11.018
	l34.673,0.256c6.128,0.043,11.058,5.056,11.014,11.183L130.437,472.207z"/>
<path style="fill:#3BA4BC;" d="M122.2,446.253l-40.793-0.315c-2.854-0.02-5.48-0.965-7.618-2.534l-0.156,20.929l-0.055,7.452
	c-0.043,6.128,4.889,11.129,11.018,11.173l34.67,0.267c6.128,0.043,11.129-4.889,11.173-11.018l0.216-28.993
	C128.364,445.127,125.417,446.275,122.2,446.253z"/>
<path style="fill:#4EBFED;" d="M381.667,472.207c0.043,6.128,5.044,11.061,11.173,11.018l34.67-0.267
	c6.128-0.043,11.061-5.044,11.018-11.173l-0.055-7.452l-1.164-155.744l-0.052-7.441c-0.043-6.128-5.044-11.061-11.173-11.018
	l-34.673,0.256c-6.128,0.043-11.058,5.056-11.014,11.183L381.667,472.207z"/>
<path style="fill:#3BA4BC;" d="M429.546,446.253l-40.793-0.315c-2.854-0.02-5.48-0.965-7.618-2.534l-0.156,20.929l-0.055,7.452
	c-0.043,6.128,4.889,11.129,11.018,11.173l34.67,0.267c6.128,0.043,11.129-4.889,11.173-11.018l0.216-28.993
	C435.711,445.127,432.763,446.275,429.546,446.253z"/>
</svg>